<?xml version="1.0" encoding="UTF-8" standalone="no"?>
<!-- Created with Inkscape (http://www.inkscape.org/) -->

<svg
   xmlns:dc="http://purl.org/dc/elements/1.1/"
   xmlns:cc="http://creativecommons.org/ns#"
   xmlns:rdf="http://www.w3.org/1999/02/22-rdf-syntax-ns#"
   xmlns:svg="http://www.w3.org/2000/svg"
   xmlns="http://www.w3.org/2000/svg"
   xmlns:xlink="http://www.w3.org/1999/xlink"
   xmlns:sodipodi="http://sodipodi.sourceforge.net/DTD/sodipodi-0.dtd"
   xmlns:inkscape="http://www.inkscape.org/namespaces/inkscape"
   width="1602.3927"
   height="370.16013"
   viewBox="0 0 423.96639 97.938203"
   version="1.1"
   id="svg932"
   inkscape:version="0.92.5 (2060ec1f9f, 2020-04-08)"
   sodipodi:docname="honologo.svg"
   inkscape:export-filename="/home/alois/Desktop/assets/honologo.png"
   inkscape:export-xdpi="96"
   inkscape:export-ydpi="96">
  <defs
     id="defs926">
    <linearGradient
       inkscape:collect="always"
       id="linearGradient1132">
      <stop
         style="stop-color:#ffffff;stop-opacity:1;"
         offset="0"
         id="stop1128" />
      <stop
         style="stop-color:#ffffff;stop-opacity:0;"
         offset="1"
         id="stop1130" />
    </linearGradient>
    <linearGradient
       inkscape:collect="always"
       id="linearGradient1114">
      <stop
         style="stop-color:#ffffff;stop-opacity:1;"
         offset="0"
         id="stop1110" />
      <stop
         style="stop-color:#ffffff;stop-opacity:0;"
         offset="1"
         id="stop1112" />
    </linearGradient>
    <linearGradient
       inkscape:collect="always"
       id="linearGradient1101">
      <stop
         style="stop-color:#ffffff;stop-opacity:1;"
         offset="0"
         id="stop1097" />
      <stop
         style="stop-color:#ffffff;stop-opacity:0;"
         offset="1"
         id="stop1099" />
    </linearGradient>
    <linearGradient
       inkscape:collect="always"
       id="linearGradient1086">
      <stop
         style="stop-color:#ffffff;stop-opacity:1;"
         offset="0"
         id="stop1082" />
      <stop
         style="stop-color:#ffffff;stop-opacity:0;"
         offset="1"
         id="stop1084" />
    </linearGradient>
    <linearGradient
       inkscape:collect="always"
       id="linearGradient1065">
      <stop
         style="stop-color:#ffcc00;stop-opacity:1;"
         offset="0"
         id="stop1061" />
      <stop
         style="stop-color:#00c514;stop-opacity:1"
         offset="1"
         id="stop1063" />
    </linearGradient>
    <linearGradient
       inkscape:collect="always"
       id="linearGradient1057">
      <stop
         style="stop-color:#55ddff;stop-opacity:1;"
         offset="0"
         id="stop1053" />
      <stop
         style="stop-color:#0009df;stop-opacity:1"
         offset="1"
         id="stop1055" />
    </linearGradient>
    <linearGradient
       inkscape:collect="always"
       id="linearGradient1049">
      <stop
         style="stop-color:#ff1800;stop-opacity:1"
         offset="0"
         id="stop1045" />
      <stop
         style="stop-color:#ffcc00;stop-opacity:1"
         offset="1"
         id="stop1047" />
    </linearGradient>
    <linearGradient
       inkscape:collect="always"
       xlink:href="#linearGradient1049"
       id="linearGradient1051"
       x1="351.51953"
       y1="677.97656"
       x2="566"
       y2="531.97656"
       gradientUnits="userSpaceOnUse" />
    <linearGradient
       inkscape:collect="always"
       xlink:href="#linearGradient1057"
       id="linearGradient1059"
       x1="400.08594"
       y1="370.80957"
       x2="530.37305"
       y2="565.80957"
       gradientUnits="userSpaceOnUse" />
    <linearGradient
       inkscape:collect="always"
       xlink:href="#linearGradient1065"
       id="linearGradient1067"
       x1="366.62695"
       y1="708.34082"
       x2="241.08594"
       y2="495.34082"
       gradientUnits="userSpaceOnUse" />
    <linearGradient
       inkscape:collect="always"
       xlink:href="#linearGradient1049"
       id="linearGradient1075"
       x1="409"
       y1="376.33887"
       x2="207.46484"
       y2="539.33887"
       gradientUnits="userSpaceOnUse" />
    <linearGradient
       inkscape:collect="always"
       xlink:href="#linearGradient1086"
       id="linearGradient1088"
       x1="216.45117"
       y1="532.05762"
       x2="431.46484"
       y2="392.05762"
       gradientUnits="userSpaceOnUse" />
    <linearGradient
       inkscape:collect="always"
       xlink:href="#linearGradient1101"
       id="linearGradient1103"
       x1="358.06836"
       y1="356.24902"
       x2="506.97656"
       y2="578.24902"
       gradientUnits="userSpaceOnUse" />
    <linearGradient
       inkscape:collect="always"
       xlink:href="#linearGradient1114"
       id="linearGradient1116"
       x1="562.51953"
       y1="503.57031"
       x2="331.35156"
       y2="655.57031"
       gradientUnits="userSpaceOnUse" />
    <linearGradient
       inkscape:collect="always"
       xlink:href="#linearGradient1132"
       id="linearGradient1134"
       x1="421.9375"
       y1="709.4707"
       x2="235.64258"
       y2="506.4707"
       gradientUnits="userSpaceOnUse" />
    <linearGradient
       inkscape:collect="always"
       xlink:href="#linearGradient1065"
       id="linearGradient1204"
       gradientUnits="userSpaceOnUse"
       x1="366.62695"
       y1="708.34082"
       x2="241.08594"
       y2="495.34082" />
    <linearGradient
       inkscape:collect="always"
       xlink:href="#linearGradient1057"
       id="linearGradient1206"
       gradientUnits="userSpaceOnUse"
       x1="400.08594"
       y1="370.80957"
       x2="530.37305"
       y2="565.80957" />
    <linearGradient
       inkscape:collect="always"
       xlink:href="#linearGradient1049"
       id="linearGradient1208"
       gradientUnits="userSpaceOnUse"
       x1="409"
       y1="376.33887"
       x2="207.46484"
       y2="539.33887" />
    <linearGradient
       inkscape:collect="always"
       xlink:href="#linearGradient1049"
       id="linearGradient1210"
       gradientUnits="userSpaceOnUse"
       x1="351.51953"
       y1="677.97656"
       x2="566"
       y2="531.97656" />
    <linearGradient
       inkscape:collect="always"
       xlink:href="#linearGradient1086"
       id="linearGradient1212"
       gradientUnits="userSpaceOnUse"
       x1="216.45117"
       y1="532.05762"
       x2="431.46484"
       y2="392.05762" />
    <linearGradient
       inkscape:collect="always"
       xlink:href="#linearGradient1101"
       id="linearGradient1214"
       gradientUnits="userSpaceOnUse"
       x1="358.06836"
       y1="356.24902"
       x2="506.97656"
       y2="578.24902" />
    <linearGradient
       inkscape:collect="always"
       xlink:href="#linearGradient1114"
       id="linearGradient1216"
       gradientUnits="userSpaceOnUse"
       x1="562.51953"
       y1="503.57031"
       x2="331.35156"
       y2="655.57031" />
    <linearGradient
       inkscape:collect="always"
       xlink:href="#linearGradient1132"
       id="linearGradient1218"
       gradientUnits="userSpaceOnUse"
       x1="421.9375"
       y1="709.4707"
       x2="235.64258"
       y2="506.4707" />
    <linearGradient
       inkscape:collect="always"
       xlink:href="#linearGradient1086"
       id="linearGradient1220"
       gradientUnits="userSpaceOnUse"
       x1="216.45117"
       y1="532.05762"
       x2="431.46484"
       y2="392.05762" />
    <linearGradient
       inkscape:collect="always"
       xlink:href="#linearGradient1086"
       id="linearGradient1254"
       gradientUnits="userSpaceOnUse"
       x1="216.45117"
       y1="532.05762"
       x2="431.46484"
       y2="392.05762" />
  </defs>
  <sodipodi:namedview
     id="base"
     pagecolor="#ffffff"
     bordercolor="#666666"
     borderopacity="1.0"
     inkscape:pageopacity="0.0"
     inkscape:pageshadow="2"
     inkscape:zoom="0.5"
     inkscape:cx="871.39274"
     inkscape:cy="205.99992"
     inkscape:document-units="px"
     inkscape:current-layer="layer1"
     showgrid="false"
     units="px"
     showborder="false"
     inkscape:object-nodes="false"
     inkscape:snap-smooth-nodes="false"
     inkscape:snap-intersection-paths="false"
     showguides="true"
     inkscape:guide-bbox="true"
     inkscape:window-width="1920"
     inkscape:window-height="1043"
     inkscape:window-x="0"
     inkscape:window-y="0"
     inkscape:window-maximized="1"
     fit-margin-top="0"
     fit-margin-left="0"
     fit-margin-right="0"
     fit-margin-bottom="0" />
  <metadata
     id="metadata929">
    <rdf:RDF>
      <cc:Work
         rdf:about="">
        <dc:format>image/svg+xml</dc:format>
        <dc:type
           rdf:resource="http://purl.org/dc/dcmitype/StillImage" />
        <dc:title></dc:title>
      </cc:Work>
    </rdf:RDF>
  </metadata>
  <g
     inkscape:label="Layer 1"
     inkscape:groupmode="layer"
     id="layer1"
     transform="translate(53.020579,-92.963853)">
    <g
       id="g1302">
      <g
         transform="translate(-5.6885982,0.26459519)"
         id="g1172">
        <path
           inkscape:connector-curvature="0"
           style="opacity:1;vector-effect:none;fill:url(#linearGradient1067);fill-opacity:1;stroke:none;stroke-width:0.99999994;stroke-linecap:butt;stroke-linejoin:miter;stroke-miterlimit:4;stroke-dasharray:none;stroke-dashoffset:0;stroke-opacity:1"
           d="M 300.16992,446.16211 A 179.99999,179.99999 0 0 0 210.62695,568.43359 179.99999,179.99999 0 0 0 387,712.51953 179.99999,179.99999 0 0 0 422.08594,708.89258 179.99999,179.99999 0 0 1 278,532.51953 179.99999,179.99999 0 0 1 300.16992,446.16211 Z"
           transform="scale(0.26458333)"
           id="circle936" />
        <path
           inkscape:connector-curvature="0"
           style="opacity:1;vector-effect:none;fill:url(#linearGradient1059);fill-opacity:1;stroke:none;stroke-width:0.99999994;stroke-linecap:butt;stroke-linejoin:miter;stroke-miterlimit:4;stroke-dasharray:none;stroke-dashoffset:0;stroke-opacity:1"
           d="M 386.8418,352.51953 A 179.99999,179.99999 0 0 0 351.08594,356.14648 179.99999,179.99999 0 0 1 496,532.51953 179.99999,179.99999 0 0 1 473.58008,619.09961 179.99999,179.99999 0 0 0 563.37305,497.43555 179.99999,179.99999 0 0 0 387,352.51953 a 179.99999,179.99999 0 0 0 -0.1582,0 z"
           transform="scale(0.26458333)"
           id="path997" />
        <path
           inkscape:connector-curvature="0"
           style="opacity:1;vector-effect:none;fill:url(#linearGradient1075);fill-opacity:1;stroke:none;stroke-width:0.99999994;stroke-linecap:butt;stroke-linejoin:miter;stroke-miterlimit:4;stroke-dasharray:none;stroke-dashoffset:0;stroke-opacity:1"
           d="M 351.47852,356.24414 A 179.99999,179.99999 0 0 0 207,532.51953 179.99999,179.99999 0 0 0 210.62695,568.43359 179.99999,179.99999 0 0 1 387,423.51953 179.99999,179.99999 0 0 1 473.46484,445.87305 179.99999,179.99999 0 0 0 351.47852,356.24414 Z"
           transform="scale(0.26458333)"
           id="path1026" />
        <path
           inkscape:connector-curvature="0"
           style="opacity:1;vector-effect:none;fill:url(#linearGradient1051);fill-opacity:1;stroke:none;stroke-width:0.99999994;stroke-linecap:butt;stroke-linejoin:miter;stroke-miterlimit:4;stroke-dasharray:none;stroke-dashoffset:0;stroke-opacity:1"
           d="M 563.37305,497.43359 A 179.99999,179.99999 0 0 1 387,641.51953 179.99999,179.99999 0 0 1 300.51953,619.27539 179.99999,179.99999 0 0 0 422.08594,708.89258 179.99999,179.99999 0 0 1 387,712.51953 a 179.99999,179.99999 0 0 0 180,-180 179.99999,179.99999 0 0 0 -3.62695,-35.08594 z"
           transform="scale(0.26458333)"
           id="path954" />
        <path
           inkscape:connector-curvature="0"
           style="opacity:0.53600003;vector-effect:none;fill:url(#linearGradient1254);fill-opacity:1;stroke:none;stroke-width:0.99999994;stroke-linecap:butt;stroke-linejoin:miter;stroke-miterlimit:4;stroke-dasharray:none;stroke-dashoffset:0;stroke-opacity:1"
           d="m 396.95703,372.01758 a 204.90221,204.90221 0 0 0 -181.04687,155.76367 204.90221,204.90221 0 0 0 -5.45899,39.54883 179.99999,179.99999 0 0 0 0.11719,0.76758 204.90221,204.90221 0 0 1 0.27539,-0.52735 A 179.99999,179.99999 0 0 1 387,423.51953 a 179.99999,179.99999 0 0 1 86.46484,22.35352 179.99999,179.99999 0 0 0 -76.50781,-73.85547 z"
           transform="scale(0.26458333)"
           id="path1077" />
        <path
           inkscape:connector-curvature="0"
           style="opacity:1;vector-effect:none;fill:url(#linearGradient1103);fill-opacity:1;stroke:none;stroke-width:0.99999994;stroke-linecap:butt;stroke-linejoin:miter;stroke-miterlimit:4;stroke-dasharray:none;stroke-dashoffset:0;stroke-opacity:1"
           d="M 356.06836,357.39844 A 179.99999,179.99999 0 0 1 496,532.51953 a 179.99999,179.99999 0 0 1 -22.41992,86.58008 179.99999,179.99999 0 0 0 68.39648,-66.61523 212.2944,212.2944 0 0 0 -164.26758,-191.34376 212.2944,212.2944 0 0 0 -0.18164,-0.043 212.2944,212.2944 0 0 0 -21.45898,-3.69922 z"
           transform="scale(0.26458333)"
           id="path1092" />
        <path
           inkscape:connector-curvature="0"
           style="opacity:1;vector-effect:none;fill:url(#linearGradient1116);fill-opacity:1;stroke:none;stroke-width:0.99999982;stroke-linecap:butt;stroke-linejoin:miter;stroke-miterlimit:4;stroke-dasharray:none;stroke-dashoffset:0;stroke-opacity:1"
           d="M 562.35156,501.42188 A 179.99999,179.99999 0 0 1 387,641.51953 a 179.99999,179.99999 0 0 1 -86.48047,-22.24414 179.99999,179.99999 0 0 0 66.9082,68.44336 211.7708,211.7708 0 0 0 191.3125,-164.37695 211.7708,211.7708 0 0 0 3.61133,-21.91992 z"
           transform="scale(0.26458333)"
           id="path1105" />
        <path
           inkscape:connector-curvature="0"
           id="path1118"
           d="M 300.16992,446.16211 A 179.99999,179.99999 0 0 0 210.62695,568.43359 179.99999,179.99999 0 0 0 387,712.51953 179.99999,179.99999 0 0 0 422.08594,708.89258 179.99999,179.99999 0 0 1 278,532.51953 179.99999,179.99999 0 0 1 300.16992,446.16211 Z"
           style="opacity:0.503;vector-effect:none;fill:#000000;fill-opacity:1;stroke:none;stroke-width:0.99999994;stroke-linecap:butt;stroke-linejoin:miter;stroke-miterlimit:4;stroke-dasharray:none;stroke-dashoffset:0;stroke-opacity:1"
           transform="scale(0.26458333)" />
        <path
           inkscape:connector-curvature="0"
           style="opacity:0.87000002;vector-effect:none;fill:url(#linearGradient1134);fill-opacity:1;stroke:none;stroke-width:0.99999994;stroke-linecap:butt;stroke-linejoin:miter;stroke-miterlimit:4;stroke-dasharray:none;stroke-dashoffset:0;stroke-opacity:1"
           d="M 300.16992,446.16211 A 179.99999,179.99999 0 0 0 225.9375,523.76367 197.45154,197.45154 0 0 0 383.26953,704.98242 197.45154,197.45154 0 0 0 421.64258,708.7793 179.99999,179.99999 0 0 1 278,532.51953 179.99999,179.99999 0 0 1 300.16992,446.16211 Z"
           transform="scale(0.26458333)"
           id="path1123" />
        <path
           inkscape:connector-curvature="0"
           id="path1136"
           transform="scale(0.26458333)"
           d="m 396.95703,372.01758 a 204.90221,204.90221 0 0 0 -181.04687,155.76367 204.90221,204.90221 0 0 0 -5.45899,39.54883 179.99999,179.99999 0 0 0 0.11719,0.76758 204.90221,204.90221 0 0 1 0.27539,-0.52735 A 179.99999,179.99999 0 0 1 387,423.51953 a 179.99999,179.99999 0 0 1 86.46484,22.35352 179.99999,179.99999 0 0 0 -76.50781,-73.85547 z"
           style="opacity:0.53600003;vector-effect:none;fill:url(#linearGradient1088);fill-opacity:1;stroke:none;stroke-width:0.99999994;stroke-linecap:butt;stroke-linejoin:miter;stroke-miterlimit:4;stroke-dasharray:none;stroke-dashoffset:0;stroke-opacity:1" />
        <path
           inkscape:connector-curvature="0"
           style="opacity:0.52600002;vector-effect:none;fill:#000000;fill-opacity:1;stroke:none;stroke-width:0.99999994;stroke-linecap:butt;stroke-linejoin:miter;stroke-miterlimit:4;stroke-dasharray:none;stroke-dashoffset:0;stroke-opacity:1"
           d="m 300.16992,446.16211 a 179.99999,179.99999 0 0 0 -89.34765,121.44922 179.99999,179.99999 0 0 1 74.10156,-83.71094 179.99999,179.99999 0 0 1 15.24609,-37.73828 z"
           transform="scale(0.26458333)"
           id="path1138" />
        <path
           inkscape:connector-curvature="0"
           style="opacity:0.503;vector-effect:none;fill:#000000;fill-opacity:1;stroke:none;stroke-width:0.99999994;stroke-linecap:butt;stroke-linejoin:miter;stroke-miterlimit:4;stroke-dasharray:none;stroke-dashoffset:0;stroke-opacity:1"
           d="m 300.51953,619.27539 a 179.99999,179.99999 0 0 0 121.08789,89.50195 179.99999,179.99999 0 0 1 -77.125,-72.61914 179.99999,179.99999 0 0 1 -43.96289,-16.88281 z M 421.875,708.92578 a 179.99999,179.99999 0 0 1 -0.53711,0.0801 179.99999,179.99999 0 0 0 0.55859,0.0566 179.99999,179.99999 0 0 0 0.17774,-0.0273 179.99999,179.99999 0 0 1 -0.19922,-0.10938 z"
           transform="scale(0.26458333)"
           id="path1143" />
        <path
           inkscape:connector-curvature="0"
           style="opacity:0.51599995;vector-effect:none;fill:#000000;fill-opacity:1;stroke:none;stroke-width:0.99999994;stroke-linecap:butt;stroke-linejoin:miter;stroke-miterlimit:4;stroke-dasharray:none;stroke-dashoffset:0;stroke-opacity:1"
           d="m 562.88086,499.48828 a 179.99999,179.99999 0 0 1 -71.8125,73.67383 179.99999,179.99999 0 0 1 -17.48828,45.9375 179.99999,179.99999 0 0 0 89.30078,-119.61133 z"
           transform="scale(0.26458333)"
           id="path1148" />
        <path
           inkscape:connector-curvature="0"
           style="opacity:0.51300001;vector-effect:none;fill:#000000;fill-opacity:1;stroke:none;stroke-width:0.99999994;stroke-linecap:butt;stroke-linejoin:miter;stroke-miterlimit:4;stroke-dasharray:none;stroke-dashoffset:0;stroke-opacity:1"
           d="m 351.47852,356.24414 a 179.99999,179.99999 0 0 0 -0.29688,0.0762 179.99999,179.99999 0 0 1 74.13867,71.53125 179.99999,179.99999 0 0 1 48.14453,18.02149 179.99999,179.99999 0 0 0 -121.98632,-89.62891 z"
           transform="scale(0.26458333)"
           id="path1153" />
      </g>
      <g
         transform="translate(220.92708,0.26459519)"
         id="g1202">
        <path
           inkscape:connector-curvature="0"
           id="path1174"
           transform="scale(0.26458333)"
           d="M 300.16992,446.16211 A 179.99999,179.99999 0 0 0 210.62695,568.43359 179.99999,179.99999 0 0 0 387,712.51953 179.99999,179.99999 0 0 0 422.08594,708.89258 179.99999,179.99999 0 0 1 278,532.51953 179.99999,179.99999 0 0 1 300.16992,446.16211 Z"
           style="opacity:1;vector-effect:none;fill:url(#linearGradient1204);fill-opacity:1;stroke:none;stroke-width:0.99999994;stroke-linecap:butt;stroke-linejoin:miter;stroke-miterlimit:4;stroke-dasharray:none;stroke-dashoffset:0;stroke-opacity:1" />
        <path
           inkscape:connector-curvature="0"
           id="path1176"
           transform="scale(0.26458333)"
           d="M 386.8418,352.51953 A 179.99999,179.99999 0 0 0 351.08594,356.14648 179.99999,179.99999 0 0 1 496,532.51953 179.99999,179.99999 0 0 1 473.58008,619.09961 179.99999,179.99999 0 0 0 563.37305,497.43555 179.99999,179.99999 0 0 0 387,352.51953 a 179.99999,179.99999 0 0 0 -0.1582,0 z"
           style="opacity:1;vector-effect:none;fill:url(#linearGradient1206);fill-opacity:1;stroke:none;stroke-width:0.99999994;stroke-linecap:butt;stroke-linejoin:miter;stroke-miterlimit:4;stroke-dasharray:none;stroke-dashoffset:0;stroke-opacity:1" />
        <path
           inkscape:connector-curvature="0"
           id="path1178"
           transform="scale(0.26458333)"
           d="M 351.47852,356.24414 A 179.99999,179.99999 0 0 0 207,532.51953 179.99999,179.99999 0 0 0 210.62695,568.43359 179.99999,179.99999 0 0 1 387,423.51953 179.99999,179.99999 0 0 1 473.46484,445.87305 179.99999,179.99999 0 0 0 351.47852,356.24414 Z"
           style="opacity:1;vector-effect:none;fill:url(#linearGradient1208);fill-opacity:1;stroke:none;stroke-width:0.99999994;stroke-linecap:butt;stroke-linejoin:miter;stroke-miterlimit:4;stroke-dasharray:none;stroke-dashoffset:0;stroke-opacity:1" />
        <path
           inkscape:connector-curvature="0"
           id="path1180"
           transform="scale(0.26458333)"
           d="M 563.37305,497.43359 A 179.99999,179.99999 0 0 1 387,641.51953 179.99999,179.99999 0 0 1 300.51953,619.27539 179.99999,179.99999 0 0 0 422.08594,708.89258 179.99999,179.99999 0 0 1 387,712.51953 a 179.99999,179.99999 0 0 0 180,-180 179.99999,179.99999 0 0 0 -3.62695,-35.08594 z"
           style="opacity:1;vector-effect:none;fill:url(#linearGradient1210);fill-opacity:1;stroke:none;stroke-width:0.99999994;stroke-linecap:butt;stroke-linejoin:miter;stroke-miterlimit:4;stroke-dasharray:none;stroke-dashoffset:0;stroke-opacity:1" />
        <path
           inkscape:connector-curvature="0"
           id="path1182"
           transform="scale(0.26458333)"
           d="m 396.95703,372.01758 a 204.90221,204.90221 0 0 0 -181.04687,155.76367 204.90221,204.90221 0 0 0 -5.45899,39.54883 179.99999,179.99999 0 0 0 0.11719,0.76758 204.90221,204.90221 0 0 1 0.27539,-0.52735 A 179.99999,179.99999 0 0 1 387,423.51953 a 179.99999,179.99999 0 0 1 86.46484,22.35352 179.99999,179.99999 0 0 0 -76.50781,-73.85547 z"
           style="opacity:0.53600003;vector-effect:none;fill:url(#linearGradient1212);fill-opacity:1;stroke:none;stroke-width:0.99999994;stroke-linecap:butt;stroke-linejoin:miter;stroke-miterlimit:4;stroke-dasharray:none;stroke-dashoffset:0;stroke-opacity:1" />
        <path
           inkscape:connector-curvature="0"
           id="path1184"
           transform="scale(0.26458333)"
           d="M 356.06836,357.39844 A 179.99999,179.99999 0 0 1 496,532.51953 a 179.99999,179.99999 0 0 1 -22.41992,86.58008 179.99999,179.99999 0 0 0 68.39648,-66.61523 212.2944,212.2944 0 0 0 -164.26758,-191.34376 212.2944,212.2944 0 0 0 -0.18164,-0.043 212.2944,212.2944 0 0 0 -21.45898,-3.69922 z"
           style="opacity:1;vector-effect:none;fill:url(#linearGradient1214);fill-opacity:1;stroke:none;stroke-width:0.99999994;stroke-linecap:butt;stroke-linejoin:miter;stroke-miterlimit:4;stroke-dasharray:none;stroke-dashoffset:0;stroke-opacity:1" />
        <path
           inkscape:connector-curvature="0"
           id="path1186"
           transform="scale(0.26458333)"
           d="M 562.35156,501.42188 A 179.99999,179.99999 0 0 1 387,641.51953 a 179.99999,179.99999 0 0 1 -86.48047,-22.24414 179.99999,179.99999 0 0 0 66.9082,68.44336 211.7708,211.7708 0 0 0 191.3125,-164.37695 211.7708,211.7708 0 0 0 3.61133,-21.91992 z"
           style="opacity:1;vector-effect:none;fill:url(#linearGradient1216);fill-opacity:1;stroke:none;stroke-width:0.99999982;stroke-linecap:butt;stroke-linejoin:miter;stroke-miterlimit:4;stroke-dasharray:none;stroke-dashoffset:0;stroke-opacity:1" />
        <path
           inkscape:connector-curvature="0"
           transform="scale(0.26458333)"
           style="opacity:0.503;vector-effect:none;fill:#000000;fill-opacity:1;stroke:none;stroke-width:0.99999994;stroke-linecap:butt;stroke-linejoin:miter;stroke-miterlimit:4;stroke-dasharray:none;stroke-dashoffset:0;stroke-opacity:1"
           d="M 300.16992,446.16211 A 179.99999,179.99999 0 0 0 210.62695,568.43359 179.99999,179.99999 0 0 0 387,712.51953 179.99999,179.99999 0 0 0 422.08594,708.89258 179.99999,179.99999 0 0 1 278,532.51953 179.99999,179.99999 0 0 1 300.16992,446.16211 Z"
           id="path1188" />
        <path
           inkscape:connector-curvature="0"
           id="path1190"
           transform="scale(0.26458333)"
           d="M 300.16992,446.16211 A 179.99999,179.99999 0 0 0 225.9375,523.76367 197.45154,197.45154 0 0 0 383.26953,704.98242 197.45154,197.45154 0 0 0 421.64258,708.7793 179.99999,179.99999 0 0 1 278,532.51953 179.99999,179.99999 0 0 1 300.16992,446.16211 Z"
           style="opacity:0.87000002;vector-effect:none;fill:url(#linearGradient1218);fill-opacity:1;stroke:none;stroke-width:0.99999994;stroke-linecap:butt;stroke-linejoin:miter;stroke-miterlimit:4;stroke-dasharray:none;stroke-dashoffset:0;stroke-opacity:1" />
        <path
           inkscape:connector-curvature="0"
           style="opacity:0.53600003;vector-effect:none;fill:url(#linearGradient1220);fill-opacity:1;stroke:none;stroke-width:0.99999994;stroke-linecap:butt;stroke-linejoin:miter;stroke-miterlimit:4;stroke-dasharray:none;stroke-dashoffset:0;stroke-opacity:1"
           d="m 396.95703,372.01758 a 204.90221,204.90221 0 0 0 -181.04687,155.76367 204.90221,204.90221 0 0 0 -5.45899,39.54883 179.99999,179.99999 0 0 0 0.11719,0.76758 204.90221,204.90221 0 0 1 0.27539,-0.52735 A 179.99999,179.99999 0 0 1 387,423.51953 a 179.99999,179.99999 0 0 1 86.46484,22.35352 179.99999,179.99999 0 0 0 -76.50781,-73.85547 z"
           transform="scale(0.26458333)"
           id="path1192" />
        <path
           inkscape:connector-curvature="0"
           id="path1194"
           transform="scale(0.26458333)"
           d="m 300.16992,446.16211 a 179.99999,179.99999 0 0 0 -89.34765,121.44922 179.99999,179.99999 0 0 1 74.10156,-83.71094 179.99999,179.99999 0 0 1 15.24609,-37.73828 z"
           style="opacity:0.52600002;vector-effect:none;fill:#000000;fill-opacity:1;stroke:none;stroke-width:0.99999994;stroke-linecap:butt;stroke-linejoin:miter;stroke-miterlimit:4;stroke-dasharray:none;stroke-dashoffset:0;stroke-opacity:1" />
        <path
           inkscape:connector-curvature="0"
           id="path1196"
           transform="scale(0.26458333)"
           d="m 300.51953,619.27539 a 179.99999,179.99999 0 0 0 121.08789,89.50195 179.99999,179.99999 0 0 1 -77.125,-72.61914 179.99999,179.99999 0 0 1 -43.96289,-16.88281 z M 421.875,708.92578 a 179.99999,179.99999 0 0 1 -0.53711,0.0801 179.99999,179.99999 0 0 0 0.55859,0.0566 179.99999,179.99999 0 0 0 0.17774,-0.0273 179.99999,179.99999 0 0 1 -0.19922,-0.10938 z"
           style="opacity:0.503;vector-effect:none;fill:#000000;fill-opacity:1;stroke:none;stroke-width:0.99999994;stroke-linecap:butt;stroke-linejoin:miter;stroke-miterlimit:4;stroke-dasharray:none;stroke-dashoffset:0;stroke-opacity:1" />
        <path
           inkscape:connector-curvature="0"
           id="path1198"
           transform="scale(0.26458333)"
           d="m 562.88086,499.48828 a 179.99999,179.99999 0 0 1 -71.8125,73.67383 179.99999,179.99999 0 0 1 -17.48828,45.9375 179.99999,179.99999 0 0 0 89.30078,-119.61133 z"
           style="opacity:0.51599995;vector-effect:none;fill:#000000;fill-opacity:1;stroke:none;stroke-width:0.99999994;stroke-linecap:butt;stroke-linejoin:miter;stroke-miterlimit:4;stroke-dasharray:none;stroke-dashoffset:0;stroke-opacity:1" />
        <path
           inkscape:connector-curvature="0"
           id="path1200"
           transform="scale(0.26458333)"
           d="m 351.47852,356.24414 a 179.99999,179.99999 0 0 0 -0.29688,0.0762 179.99999,179.99999 0 0 1 74.13867,71.53125 179.99999,179.99999 0 0 1 48.14453,18.02149 179.99999,179.99999 0 0 0 -121.98632,-89.62891 z"
           style="opacity:0.51300001;vector-effect:none;fill:#000000;fill-opacity:1;stroke:none;stroke-width:0.99999994;stroke-linecap:butt;stroke-linejoin:miter;stroke-miterlimit:4;stroke-dasharray:none;stroke-dashoffset:0;stroke-opacity:1" />
      </g>
      <text
         xml:space="preserve"
         style="font-style:normal;font-weight:normal;font-size:131.44172668px;line-height:1.25;font-family:sans-serif;letter-spacing:0px;word-spacing:0px;opacity:0.68800001;fill:#ececec;fill-opacity:0.99961871;stroke:none;stroke-width:0.26458326"
         x="160.85072"
         y="190.90205"
         id="text1258"><tspan
           sodipodi:role="line"
           id="tspan1256"
           x="160.85072"
           y="190.90205"
           style="fill:#ececec;fill-opacity:0.99961871;stroke-width:0.26458326">N</tspan></text>
      <text
         id="text1224"
         y="188.78539"
         x="160.85072"
         style="font-style:normal;font-weight:normal;font-size:131.44172668px;line-height:1.25;font-family:sans-serif;letter-spacing:0px;word-spacing:0px;fill:#ff7c4b;fill-opacity:1;stroke:none;stroke-width:0.26458326"
         xml:space="preserve"><tspan
           style="fill:#ff7c4b;fill-opacity:1;stroke-width:0.26458326"
           y="188.78539"
           x="160.85072"
           id="tspan1222"
           sodipodi:role="line">N</tspan></text>
      <text
         id="text1262"
         y="190.90205"
         x="-65.885246"
         style="font-style:normal;font-weight:normal;font-size:131.07879639px;line-height:1.25;font-family:sans-serif;letter-spacing:0px;word-spacing:0px;opacity:0.68800001;fill:#ececec;fill-opacity:0.99891238;stroke:none;stroke-width:0.26458326"
         xml:space="preserve"><tspan
           style="fill:#ececec;fill-opacity:0.99891238;stroke-width:0.26458326"
           y="190.90205"
           x="-65.885246"
           id="tspan1260"
           sodipodi:role="line">H</tspan></text>
      <text
         xml:space="preserve"
         style="font-style:normal;font-weight:normal;font-size:131.07879639px;line-height:1.25;font-family:sans-serif;letter-spacing:0px;word-spacing:0px;fill:#ff7c4b;fill-opacity:1;stroke:none;stroke-width:0.26458326"
         x="-65.885246"
         y="188.78539"
         id="text1248"><tspan
           sodipodi:role="line"
           id="tspan1246"
           x="-65.885246"
           y="188.78539"
           style="fill:#ff7c4b;fill-opacity:1;stroke-width:0.26458326">H</tspan></text>
    </g>
  </g>
</svg>
